<svg xmlns="http://www.w3.org/2000/svg" xmlns:xlink="http://www.w3.org/1999/xlink" width="24" height="24" viewBox="0 0 24 24" fill="none">
<path    stroke="rgba(124, 124, 124, 1)" stroke-width="1.5" stroke-linejoin="round" stroke-linecap="round"  d="M3.16992 7.43994L11.9999 12.5499L20.7699 7.46994">
</path>
<path    stroke="rgba(124, 124, 124, 1)" stroke-width="1.5" stroke-linejoin="round" stroke-linecap="round"  d="M12 21.61L12 12.54">
</path>
<path d="M9.93014 2.47988L4.59014 5.44044C3.38014 6.11057 2.39014 7.79088 2.39014 9.17114L2.39014 14.8222C2.39014 16.2025 3.38014 17.8828 4.59014 18.5529L9.93014 21.5235C11.0701 22.1536 12.9401 22.1536 14.0801 21.5235L19.4201 18.5529C20.6301 17.8828 21.6201 16.2025 21.6201 14.8222L21.6201 9.17114C21.6201 7.79088 20.6301 6.11057 19.4201 5.44044L14.0801 2.46988C12.9301 1.83976 11.0701 1.83976 9.93014 2.47988Z" stroke="rgba(124, 124, 124, 1)" stroke-width="1.5" stroke-linejoin="round" stroke-linecap="round" >
</path>
<g opacity="0">
</g>
</svg>
