<svg xmlns="http://www.w3.org/2000/svg" xmlns:xlink="http://www.w3.org/1999/xlink" width="24" height="24" viewBox="0 0 24 24" fill="none">
<path d="M10.0712 2.81991L3.14019 8.36883C2.36008 8.98871 1.86 10.2985 2.03003 11.2783L3.36023 19.2367C3.60027 20.6565 4.96046 21.8063 6.40068 21.8063L17.6024 21.8063C19.0326 21.8063 20.4028 20.6465 20.6428 19.2367L21.973 11.2783C22.1331 10.2985 21.633 8.98871 20.8629 8.36883L13.9318 2.82991C12.8617 1.97008 11.1314 1.97007 10.0712 2.81991Z" stroke="rgba(124, 124, 124, 1)" stroke-width="1.5" stroke-linejoin="round" stroke-linecap="round" >
</path>
<path d="M14.5 13C14.5 14.3807 13.3807 15.5 12 15.5C10.6193 15.5 9.5 14.3807 9.5 13C9.5 11.6193 10.6193 10.5 12 10.5C13.3807 10.5 14.5 11.6193 14.5 13Z" stroke="rgba(124, 124, 124, 1)" stroke-width="1.5" stroke-linejoin="round" stroke-linecap="round" >
</path>
<g opacity="0">
</g>
</svg>
