<svg xmlns="http://www.w3.org/2000/svg" xmlns:xlink="http://www.w3.org/1999/xlink" width="24" height="24" viewBox="0 0 24 24" fill="none">
<path    stroke="rgba(124, 124, 124, 1)" stroke-width="1.5"  stroke-linecap="round"  d="M6.87988 18.15L6.87988 16.08">
</path>
<path    stroke="rgba(124, 124, 124, 1)" stroke-width="1.5"  stroke-linecap="round"  d="M12 18.15L12 14.01">
</path>
<path    stroke="rgba(124, 124, 124, 1)" stroke-width="1.5"  stroke-linecap="round"  d="M17.1201 18.15L17.1201 11.93">
</path>
<path    stroke="rgba(124, 124, 124, 1)" stroke-width="1.5"  stroke-linecap="round"  d="M17.1199 5.85001L16.6599 6.39001C14.1099 9.37001 10.6899 11.48 6.87988 12.43">
</path>
<path    stroke="rgba(124, 124, 124, 1)" stroke-width="1.5" stroke-linejoin="round" stroke-linecap="round"  d="M14.1899 5.85001L17.1199 5.85001L17.1199 8.77001">
</path>
<path d="M9 22L15 22C20 22 22 20 22 15L22 9C22 4 20 2 15 2L9 2C4 2 2 4 2 9L2 15C2 20 4 22 9 22Z" stroke="rgba(124, 124, 124, 1)" stroke-width="1.5" stroke-linejoin="round" stroke-linecap="round" >
</path>
<g opacity="0">
</g>
</svg>
