<svg xmlns="http://www.w3.org/2000/svg" xmlns:xlink="http://www.w3.org/1999/xlink" width="24" height="24" viewBox="0 0 24 24" fill="none">
<path d="M18 18.8579L17.24 18.8579C16.44 18.8579 15.68 19.1678 15.12 19.7277L13.41 21.4175C12.63 22.1874 11.36 22.1874 10.58 21.4175L8.87 19.7277C8.31 19.1678 7.54 18.8579 6.75 18.8579L6 18.8579C4.34 18.8579 3 17.5281 3 15.8883L3 4.9796C3 3.33981 4.34 2.01001 6 2.01001L18 2.01001C19.66 2.01001 21 3.33981 21 4.9796L21 15.8883C21 17.5181 19.66 18.8579 18 18.8579Z" stroke="rgba(124, 124, 124, 1)" stroke-width="1.5" stroke-linejoin="round" stroke-linecap="round" >
</path>
<path d="M14.33 7.66997C14.33 8.95679 13.2868 9.99997 12 9.99997C10.7131 9.99997 9.66992 8.95679 9.66992 7.66997C9.66992 6.38315 10.7131 5.34003 12 5.34003C13.2868 5.34003 14.33 6.38315 14.33 7.66997Z" stroke="rgba(124, 124, 124, 1)" stroke-width="1.5" stroke-linejoin="round" stroke-linecap="round" >
</path>
<path    stroke="rgba(124, 124, 124, 1)" stroke-width="1.5" stroke-linejoin="round" stroke-linecap="round"  d="M16 15.6599C16 13.86 14.21 12.4 12 12.4C9.79 12.4 8 13.86 8 15.6599">
</path>
<g opacity="0">
</g>
</svg>
