<?xml version="1.0" encoding="UTF-8"?>
<svg width="200px" height="200px" viewBox="0 0 200 200" version="1.1" xmlns="http://www.w3.org/2000/svg">
    <circle cx="100" cy="100" r="100" fill="#f0f0f0"/>
    <path d="M100,50 C77.90861,50 60,67.90861 60,90 C60,112.09139 77.90861,130 100,130 C122.09139,130 140,112.09139 140,90 C140,67.90861 122.09139,50 100,50 Z M100,150 C66.66667,150 40,176.66667 40,210 L40,230 C40,235.52285 44.47715,240 50,240 L150,240 C155.52285,240 160,235.52285 160,230 L160,210 C160,176.66667 133.33333,150 100,150 Z" fill="#909399"/>
</svg> 